<?xml version="1.0" encoding="utf-8"?>
<!-- Generator: Adobe Illustrator 18.0.0, SVG Export Plug-In . SVG Version: 6.00 Build 0)  -->
<svg version="1.1" id="Layer_1" xmlns="http://www.w3.org/2000/svg" xmlns:xlink="http://www.w3.org/1999/xlink" x="0px" y="0px"
	 width="215px" height="30px" viewBox="0 0 215 30" enable-background="new 0 0 215 30" xml:space="preserve">
<g>
	<rect x="0.7" y="2.3" fill="#FFFFFF" width="3.4" height="25.5"/>
	<path fill="#FFFFFF" d="M9.1,2.3h9.2c2.2,0,5.2,0,6.7,0.9c1.7,1,3,2.8,3,5.3c0,2.7-1.4,4.7-3.8,5.7v0.1c3.1,0.7,4.8,3,4.8,6.1
		c0,3.7-2.7,7.3-7.7,7.3H9.1V2.3z M12.5,13.2h6.8c3.8,0,5.4-1.4,5.4-4.1c0-3.6-2.5-4-5.4-4h-6.8V13.2z M12.5,24.9H21
		c3,0,4.8-1.7,4.8-4.6c0-3.3-2.7-4.2-5.5-4.2h-7.7V24.9z"/>
	<polygon fill="#FFFFFF" points="32.8,2.3 37.4,2.3 45.4,23.7 53.5,2.3 58.1,2.3 58.1,27.7 54.9,27.7 54.9,6.6 54.8,6.6 46.9,27.7 
		44,27.7 36.1,6.6 36,6.6 36,27.7 32.8,27.7 	"/>
	<path fill="#FFFFFF" d="M74.9,19.3c0,3.4,2.6,4.7,5.6,4.7c2,0,5-0.6,5-3.2c0-2.8-3.8-3.2-7.6-4.2c-3.8-0.9-7.6-2.5-7.6-7.2
		c0-5.2,4.9-7.7,9.5-7.7c5.3,0,10.2,2.3,10.2,8.2h-5.4c-0.2-3-2.3-3.8-5-3.8c-1.8,0-3.8,0.7-3.8,2.9c0,2,1.2,2.2,7.6,3.8
		c1.9,0.4,7.6,1.7,7.6,7.4c0,4.7-3.6,8.2-10.6,8.2c-5.6,0-10.9-2.8-10.8-9.1H74.9z"/>
	<path fill="#FFFFFF" d="M110.9,10.8c-0.4-2.5-2.8-4.5-5.6-4.5c-5,0-6.9,4.3-6.9,8.7c0,4.2,1.9,8.5,6.9,8.5c3.4,0,5.3-2.3,5.8-5.7
		h5.4c-0.6,6.4-4.9,10.4-11.2,10.4c-7.8,0-12.5-5.9-12.5-13.2c0-7.6,4.7-13.4,12.5-13.4c5.6,0,10.3,3.3,11,9.2H110.9z"/>
	<path fill="#FFFFFF" d="M131.2,1.7c7.8,0,12.5,5.9,12.5,13.4c0,7.3-4.7,13.2-12.5,13.2c-7.8,0-12.5-5.9-12.5-13.2
		C118.7,7.6,123.4,1.7,131.2,1.7 M131.2,23.6c5,0,6.9-4.3,6.9-8.5c0-4.5-1.9-8.7-6.9-8.7c-5,0-6.9,4.3-6.9,8.7
		C124.3,19.3,126.2,23.6,131.2,23.6"/>
	<path fill="#FFFFFF" d="M146.8,2.3h13.7c4.6,0,7.5,3.2,7.5,7c0,3-1.2,5.2-4,6.4v0.1c2.7,0.7,3.5,3.3,3.7,6c0.1,1.6,0,4.6,1.1,6
		h-5.6c-0.6-1.6-0.6-4.1-0.9-6.1c-0.4-2.7-1.4-3.9-4.2-3.9h-5.6v9.9h-5.6V2.3z M152.4,13.8h6.1c2.5,0,3.8-1.1,3.8-3.6
		c0-2.5-1.3-3.5-3.8-3.5h-6.1V13.8z"/>
	<polygon fill="#FFFFFF" points="171.5,2.3 190.6,2.3 190.6,7 177.1,7 177.1,12.4 189.5,12.4 189.5,16.8 177.1,16.8 177.1,23 
		190.9,23 190.9,27.7 171.5,27.7 	"/>
	<path fill="#FFFFFF" d="M198.4,19.3c0,3.4,2.6,4.7,5.6,4.7c2,0,5-0.6,5-3.2c0-2.8-3.8-3.2-7.6-4.2c-3.8-0.9-7.6-2.5-7.6-7.2
		c0-5.2,4.9-7.7,9.5-7.7c5.3,0,10.2,2.3,10.2,8.2h-5.4c-0.2-3-2.3-3.8-5-3.8c-1.8,0-3.8,0.7-3.8,2.9c0,2,1.2,2.2,7.6,3.8
		c1.9,0.4,7.6,1.7,7.6,7.4c0,4.7-3.6,8.2-10.6,8.2c-5.6,0-10.9-2.8-10.8-9.1H198.4z"/>
</g>
</svg>
