<?xml version="1.0" encoding="utf-8"?>
<!-- Generator: Adobe Illustrator 18.0.0, SVG Export Plug-In . SVG Version: 6.00 Build 0)  -->
<svg version="1.1" xmlns="http://www.w3.org/2000/svg" xmlns:xlink="http://www.w3.org/1999/xlink" x="0px" y="0px" width="70px"
	 height="70px" viewBox="0 0 70 70" enable-background="new 0 0 70 70" xml:space="preserve">
<g id="Layer_2" display="none">
	
		<image display="inline" overflow="visible" width="70" height="70" xlink:href="4266A1AE.jpg"  transform="matrix(0.9999 0 0 0.9999 4.375758e-003 4.375758e-003)">
	</image>
</g>
<g id="Layer_1">
	<path fill="#7F7A82" d="M45.4,32.3L36,41.7c-0.1,0.1-0.3,0.2-0.5,0.2c-0.2,0-0.3-0.1-0.5-0.2l-9.4-9.4c-0.1-0.1-0.2-0.3-0.2-0.5
		c0-0.2,0.1-0.3,0.2-0.5l1-1c0.1-0.1,0.3-0.2,0.5-0.2c0.2,0,0.3,0.1,0.5,0.2l7.9,7.9l7.9-7.9c0.1-0.1,0.3-0.2,0.5-0.2
		c0.2,0,0.3,0.1,0.5,0.2l1,1c0.1,0.1,0.2,0.3,0.2,0.5C45.6,32,45.5,32.2,45.4,32.3"/>
</g>
</svg>
