<?xml version="1.0" encoding="utf-8"?>
<!-- Generator: Adobe Illustrator 18.0.0, SVG Export Plug-In . SVG Version: 6.00 Build 0)  -->
<svg version="1.1" xmlns="http://www.w3.org/2000/svg" xmlns:xlink="http://www.w3.org/1999/xlink" x="0px" y="0px" width="70px"
	 height="70px" viewBox="0 0 70 70" enable-background="new 0 0 70 70" xml:space="preserve">
<g id="Layer_2">
</g>
<g id="Layer_1">
	<path fill="#5454D1" d="M25.7,39.8l9.4-9.4c0.1-0.1,0.3-0.2,0.5-0.2c0.2,0,0.3,0.1,0.5,0.2l9.4,9.4c0.1,0.1,0.2,0.3,0.2,0.5
		c0,0.2-0.1,0.3-0.2,0.5l-1,1c-0.1,0.1-0.3,0.2-0.5,0.2c-0.2,0-0.3-0.1-0.5-0.2l-7.9-7.9l-7.9,7.9c-0.1,0.1-0.3,0.2-0.5,0.2
		s-0.3-0.1-0.5-0.2l-1-1c-0.1-0.1-0.2-0.3-0.2-0.5C25.5,40.1,25.5,39.9,25.7,39.8"/>
</g>
</svg>
