<?xml version="1.0" encoding="utf-8"?>
<!-- Generator: Adobe Illustrator 18.0.0, SVG Export Plug-In . SVG Version: 6.00 Build 0)  -->
<svg version="1.1" xmlns="http://www.w3.org/2000/svg" xmlns:xlink="http://www.w3.org/1999/xlink" x="0px" y="0px" width="70px"
	 height="70px" viewBox="0 0 70 70" enable-background="new 0 0 70 70" xml:space="preserve">
<g id="Layer_2">
	<path fill="#909098" d="M36.4,44.4h-2.8c-0.5,0-1-0.5-1-1V26.6c0-0.5,0.5-1,1-1h2.8c0.5,0,1,0.5,1,1v16.8
		C37.4,43.9,37,44.4,36.4,44.4z"/>
	<path fill="#909098" d="M25.6,36.4v-2.8c0-0.5,0.5-1,1-1h16.8c0.5,0,1,0.5,1,1v2.8c0,0.5-0.5,1-1,1H26.6
		C26.1,37.4,25.6,37,25.6,36.4z"/>
</g>
<g id="Layer_1">
</g>
</svg>
